<svg preserveAspectRatio="none" width="100%" height="100%" overflow="visible" style="display: block;" viewBox="0 0 444.568 444.722" fill="none" xmlns="http://www.w3.org/2000/svg">
<path id="Vector" fill-rule="evenodd" clip-rule="evenodd" d="M253.593 4.11131C255.695 13.8445 263.129 88.9634 262.095 89.9996C261.494 90.5988 237.57 72.3327 208.93 49.4037C175.789 22.8737 155.237 7.71825 152.401 7.71825C149.949 7.71825 147.944 8.43015 147.944 9.30024C147.944 10.1703 166.173 33.7519 188.453 61.7037C210.733 89.6556 228.297 112.525 227.481 112.525C226.666 112.525 189.993 100.516 145.986 85.835C66.3982 59.2872 65.9533 59.1666 62.0814 63.0405C59.9398 65.1821 58.5832 67.2684 59.0677 67.6797C59.5502 68.091 91.0912 86.0328 129.158 107.552C167.225 129.073 199.462 147.683 200.798 148.909C202.612 150.574 179.608 153.044 109.834 158.676C-4.00239 167.865 2.25637 167.027 0.682293 173.299C-0.00191909 176.022 -0.205601 178.603 0.22747 179.036C1.19644 180.007 195.831 201.512 203.636 201.512C206.721 201.512 209.199 202.181 209.141 202.995C209.084 203.81 171.225 235.624 125.009 273.691C78.7951 311.757 39.7437 344.246 38.2309 345.887C35.8698 348.444 35.9647 349.514 38.8953 353.397L41.2724 356.549C41.8689 357.34 42.9546 357.575 43.8249 357.102L139.126 305.261C192.374 276.295 238.946 250.855 242.618 248.727C246.291 246.597 249.644 245.207 250.072 245.634C250.665 246.227 214.659 424.073 210.46 441.283C209.79 444.03 210.905 444.74 215.859 444.722L220.781 444.706C221.581 444.704 222.303 444.224 222.615 443.488L261.549 351.78C283.246 300.674 301.498 258.86 302.109 258.86C302.72 258.86 313.774 290.671 326.674 329.555C339.575 368.436 350.753 400.938 351.517 401.781C352.28 402.621 354.376 401.686 356.172 399.7C359.221 396.331 358.784 391.209 349.65 323.14C344.265 283.019 340.172 249.88 340.554 249.498C340.935 249.116 357.598 267.462 377.582 290.266C397.567 313.07 414.553 331.795 415.33 331.878C416.108 331.959 417.567 330.47 418.575 328.566C419.993 325.885 413.976 313.353 391.869 272.945C376.176 244.256 363.68 220.439 364.102 220.016C364.525 219.594 381.628 225.491 402.109 233.12C422.59 240.752 440.522 246.995 441.957 246.995C443.393 246.995 444.568 245.401 444.568 243.451C444.568 241.147 432.058 230.68 408.824 213.541C389.166 199.04 373.817 186.537 374.713 185.756C375.611 184.977 390.811 180.917 408.494 176.734C438.526 169.631 440.561 168.862 439.394 165.053C438.706 162.809 438.032 160.893 437.896 160.792C437.759 160.693 422.963 158.1 405.018 155.033C387.072 151.964 370.882 148.931 369.039 148.29C366.316 147.343 369.583 141.851 386.532 118.887C414.389 81.1484 413.557 80.0588 372.004 99.8871C355.049 107.977 340.904 114.327 340.573 113.996C340.243 113.666 341.744 96.1417 343.907 75.0518C347.34 41.6105 347.479 36.3424 344.985 33.8488C342.493 31.3552 339.921 34.7486 324.866 60.3867C315.372 76.5547 306.537 90.935 305.234 92.341C303.359 94.3659 298.49 85.1014 281.86 47.8475C265.015 10.1209 260.036 0.670478 256.728 0.15633C253.33 -0.373637 252.777 0.324417 253.593 4.11131Z" fill="var(--fill-0, #FED42B)"/>
</svg>
